<?xml version="1.0" encoding="utf-8"?>
<!-- Generator: Adobe Illustrator 16.0.0, SVG Export Plug-In . SVG Version: 6.00 Build 0)  -->
<!DOCTYPE svg PUBLIC "-//W3C//DTD SVG 1.1//EN" "http://www.w3.org/Graphics/SVG/1.1/DTD/svg11.dtd">
<svg version="1.1" id="Layer_1" xmlns="http://www.w3.org/2000/svg" xmlns:xlink="http://www.w3.org/1999/xlink" x="0px" y="0px"
	 width="841.89px" height="595.276px" viewBox="0 0 841.89 595.276" enable-background="new 0 0 841.89 595.276"
	 xml:space="preserve">
<g>
	<path d="M532.472,495.505c0-13.751,3.925-30.277,18.977-30.277c14.04,0,18.512,15.366,18.512,30.564
		c0,17.368-5.521,31.803-18.601,31.803C537.562,527.595,532.472,512.728,532.472,495.505 M517.852,496.663
		c0,21.275,15.342,34.446,32.711,34.446c21.857,0,34.016-16.209,34.016-35.459c0-19.253-12.693-33.897-32.955-33.897
		C531.356,461.752,517.852,476.108,517.852,496.663 M535.738,416.272c0-3.723-52.829-11.082-117.995-11.082
		c-65.167,0-117.995,7.359-117.995,11.082c0,3.722,52.827,3.173,117.995,3.173C482.909,419.445,535.738,419.994,535.738,416.272
		 M459.158,496.806c0,18.468,10.131,34.303,32.192,34.303c10.535,0,18.249-5.105,22.792-9.047v-9.663
		c-2.389,3.793-10.304,15.196-21.425,15.196c-11.995,0-19.275-13.984-19.275-30.84c0-19.876,9.577-31.527,17.926-31.527
		c11.555,0.124,21.297,16.749,22.774,19.408v-23.819l-6.351,6.312c-1.496-1.605-6.961-5.25-16.414-5.371
		C467.082,461.444,459.158,482.242,459.158,496.806 M388.251,530.239h28.579c0,0-7.92-3.198-7.92-6.385l0.123-45.431
		c1.588-3.329,7.524-10.131,18.089-10.131c6.223,0,12.012,5.501,12.012,15.486l-0.121,40.798c0,3.188-7.921,5.662-7.921,5.662
		h28.577c0,0-7.34-3.056-7.34-6.238l0.121-39.351c0-13.752-6.225-22.872-19.682-22.872c-12.448,0-17.948,6.515-23.45,11.87h-0.286
		v-12.822l-20.618,4.402c0,0,7.154,2.99,7.445,6.03l-0.123,53.318C395.737,527.765,388.251,530.239,388.251,530.239
		 M341.217,513.306c0-12.881,11.686-16.932,26.159-21.421l-0.58,25.332c-3.474,4.342-6.725,8.563-14.253,8.563
		C346.32,525.781,341.217,521.27,341.217,513.306 M327.178,515.477c0,9.267,8.401,15.632,18.389,15.632
		c8.684,0,16.164-4.194,21.374-10.274l-0.048,9.404h18.448c0,0-4.775-2.282-4.983-5.787c0-4.778,0.189-28.513,0.189-41.249
		c0-19.252-10.578-21.45-24.906-21.45c-11.002,0-23.292,6.687-23.292,15.37c0,3.763,1.738,7.527,6.514,7.527
		c5.211,0,8.396-3.185,8.396-6.227c0-3.183-1.304-6.369-1.304-8.54c1.304-1.591,3.31-4.655,8.809-4.655
		c12.016,0,12.47,11.748,12.47,14.354v8.106c-6.079,3.474-16.068,5.933-24.316,9.117
		C335.676,499.557,327.178,503.609,327.178,515.477 M234.666,483.939l-7.066-16.801c-3.172-1.962-8.249-5.381-16.404-5.381
		c-13.052,0-23.768,7.259-23.768,18.735c0,10.281,15.028,17.438,23.549,21.378c8.132,3.763,17.044,7.736,17.044,14.721
		c0,6.75-5.026,11.024-17.241,11.024c-11.835,0-20.718-13.734-24.225-19.314l-0.03,23.755l6.343-6.312
		c1.986,1.521,10.021,5.378,19.08,5.378c10.375,0,27.614-4.442,27.614-17.672c0-13.879-15.34-18.33-23.083-21.689
		c-7.79-3.382-17.84-6.396-17.84-15.407c0-3.648,1.177-11.128,10.944-11.128c14.065,0,25.353,19.417,25.353,19.417
		S234.835,484.382,234.666,483.939 M255.521,460.807l-22.125,4.421c0,0,15.783,39.098,26.06,65.006h4.248
		c2.025-6.366,3.66-10.557,5.687-15.478c4.197-10.566,8.25-22.146,12.448-31.554c5.645,14.185,11.485,29.519,17.854,47.031h3.965
		c2.026-6.366,3.509-10.414,5.538-15.478c6.512-16.5,9.433-25.035,15.8-40.958c1.882-4.92,11.072-12.991,11.072-12.991
		l-23.102,4.421c0,0,8.268,1.336,8.268,4.809c0,0.87-0.145,3.046-0.895,5.204c-4.052,11.867-7.906,22.153-13.696,37.205h-0.54
		c-5.502-14.329-12.251-31.994-15.002-39.376c-0.723-1.736-0.841-4.628-0.841-4.773c0-2.457,5.645-7.489,5.645-7.489l-26.04,4.421
		c0,0,5.632,2.057,7.514,6.253c1.156,2.461,2.145,6.073,2.434,6.942c-4.198,11.58-8.686,22.438-13.17,34.016h-0.436
		c-6.08-15.343-12.568-33.431-15.461-40.812c-0.723-1.734-1.013-2.892-1.013-3.038C249.731,466.271,255.521,460.807,255.521,460.807
		 M579.855,384.058c0.474-13.016-9.517-69.173-55.728-108.165c-35.582-30.02-63.134-34.428-104.99-74.521
		c-41.862-40.101-41.497-104.209,17.627-118.45c62.572-15.069,86.545,51.47,93.596,67.863c-3.967-16.658-14.278-53.408-15.6-58.696
		c-4.188-1.543-49.229-28.462-92.319-28.864c-23.575-0.22-81.521,5.949-81.521,78.659c0,48.986,35.686,81.373,67.57,100.748
		c28.057,14.973,146.129,61.848,164.767,131.692c-15.591-55.269-105.872-107.915-176.317-126.077
		c-52.141,8.617-88.674,43.468-108.814,62.56c143.799-82.033,233.862,17.386,269.758,52.586
		c-29.804-27.587-93.109-95.459-194.762-78.22c-38.894,13.545-66.969,40.235-83.698,56.092
		c125.525-72.245,236.907-5.459,284.985,39.512c-38.506-34.093-120.519-83.476-210.447-64.987
		c-38.656,13.595-66.577,40.136-83.241,55.931c137.926-80.292,276.72,5.639,300.215,25.037
		c-17.838-12.22-111.818-74.221-226.739-50.01c-38.113,13.698-65.666,39.91-82.177,55.561
		c98.553-58.282,252.186-18.94,296.081-0.583C570.065,406.728,579.202,401.942,579.855,384.058 M648.022,524l0.121-39.351
		c0-13.752-6.223-22.872-19.684-22.872c-12.445,0-17.945,6.515-23.447,11.87h-0.287v-12.822l-20.608,4.402
		c0,0,7.146,2.99,7.436,6.03l-0.121,53.318c0,3.188-7.487,5.662-7.487,5.662h28.58c0,0-7.92-3.198-7.92-6.385l0.121-45.431
		c1.59-3.329,7.525-10.131,18.088-10.131c6.225,0,12.014,5.501,12.014,15.486l-0.12,40.798c0,3.188-7.92,5.662-7.92,5.662h28.577
		C655.364,530.239,648.022,527.183,648.022,524"/>
</g>
</svg>
