<?xml version="1.0" encoding="utf-8"?>
<!-- Generator: Adobe Illustrator 18.1.1, SVG Export Plug-In . SVG Version: 6.00 Build 0)  -->
<svg version="1.1" id="Layer_1" xmlns="http://www.w3.org/2000/svg" xmlns:xlink="http://www.w3.org/1999/xlink" x="0px" y="0px"
	 viewBox="123 123.6 841.9 595.3" enable-background="new 123 123.6 841.9 595.3" xml:space="preserve">
<g>
	<path fill="#292B77" d="M655.5,619.1c0-13.8,3.9-30.3,19-30.3c14,0,18.5,15.4,18.5,30.6c0,17.4-5.5,31.8-18.6,31.8
		C660.6,651.2,655.5,636.3,655.5,619.1 M640.9,620.3c0,21.3,15.3,34.4,32.7,34.4c21.9,0,34-16.2,34-35.5c0-19.3-12.7-33.9-33-33.9
		C654.4,585.4,640.9,599.7,640.9,620.3 M658.7,539.9c0-3.7-52.8-11.1-118-11.1c-65.2,0-118,7.4-118,11.1c0,3.7,52.8,3.2,118,3.2
		C605.9,543.1,658.7,543.6,658.7,539.9 M582.2,620.4c0,18.5,10.1,34.3,32.2,34.3c10.5,0,18.2-5.1,22.8-9V636
		c-2.4,3.8-10.3,15.2-21.4,15.2c-12,0-19.3-14-19.3-30.8c0-19.9,9.6-31.5,17.9-31.5c11.6,0.1,21.3,16.7,22.8,19.4v-23.8l-6.4,6.3
		c-1.5-1.6-7-5.2-16.4-5.4C590.1,585.1,582.2,605.9,582.2,620.4 M511.3,653.9h28.6c0,0-7.9-3.2-7.9-6.4L532,602
		c1.6-3.3,7.5-10.1,18.1-10.1c6.2,0,12,5.5,12,15.5l-0.1,40.8c0,3.2-7.9,5.7-7.9,5.7h28.6c0,0-7.3-3.1-7.3-6.2l0.1-39.4
		c0-13.8-6.2-22.9-19.7-22.9c-12.4,0-17.9,6.5-23.4,11.9H532v-12.8l-20.6,4.4c0,0,7.2,3,7.4,6l-0.1,53.3
		C518.7,651.4,511.3,653.9,511.3,653.9 M464.2,636.9c0-12.9,11.7-16.9,26.2-21.4l-0.6,25.3c-3.5,4.3-6.7,8.6-14.3,8.6
		C469.3,649.4,464.2,644.9,464.2,636.9 M450.2,639.1c0,9.3,8.4,15.6,18.4,15.6c8.7,0,16.2-4.2,21.4-10.3l0,9.4h18.4
		c0,0-4.8-2.3-5-5.8c0-4.8,0.2-28.5,0.2-41.2c0-19.3-10.6-21.5-24.9-21.5c-11,0-23.3,6.7-23.3,15.4c0,3.8,1.7,7.5,6.5,7.5
		c5.2,0,8.4-3.2,8.4-6.2c0-3.2-1.3-6.4-1.3-8.5c1.3-1.6,3.3-4.7,8.8-4.7c12,0,12.5,11.7,12.5,14.4v8.1c-6.1,3.5-16.1,5.9-24.3,9.1
		C458.7,623.2,450.2,627.2,450.2,639.1 M357.7,607.6l-7.1-16.8c-3.2-2-8.2-5.4-16.4-5.4c-13.1,0-23.8,7.3-23.8,18.7
		c0,10.3,15,17.4,23.5,21.4c8.1,3.8,17,7.7,17,14.7c0,6.8-5,11-17.2,11c-11.8,0-20.7-13.7-24.2-19.3l0,23.8l6.3-6.3
		c2,1.5,10,5.4,19.1,5.4c10.4,0,27.6-4.4,27.6-17.7c0-13.9-15.3-18.3-23.1-21.7c-7.8-3.4-17.8-6.4-17.8-15.4
		c0-3.6,1.2-11.1,10.9-11.1c14.1,0,25.4,19.4,25.4,19.4S357.8,608,357.7,607.6 M378.5,584.4l-22.1,4.4c0,0,15.8,39.1,26.1,65h4.2
		c2-6.4,3.7-10.6,5.7-15.5c4.2-10.6,8.2-22.1,12.4-31.6c5.6,14.2,11.5,29.5,17.9,47h4c2-6.4,3.5-10.4,5.5-15.5
		c6.5-16.5,9.4-25,15.8-41c1.9-4.9,11.1-13,11.1-13l-23.1,4.4c0,0,8.3,1.3,8.3,4.8c0,0.9-0.1,3-0.9,5.2
		c-4.1,11.9-7.9,22.2-13.7,37.2h-0.5c-5.5-14.3-12.3-32-15-39.4c-0.7-1.7-0.8-4.6-0.8-4.8c0-2.5,5.6-7.5,5.6-7.5l-26,4.4
		c0,0,5.6,2.1,7.5,6.3c1.2,2.5,2.1,6.1,2.4,6.9c-4.2,11.6-8.7,22.4-13.2,34h-0.4c-6.1-15.3-12.6-33.4-15.5-40.8c-0.7-1.7-1-2.9-1-3
		C372.7,589.9,378.5,584.4,378.5,584.4 M702.9,507.7c0.5-13-9.5-69.2-55.7-108.2c-35.6-30-63.1-34.4-105-74.5
		c-41.9-40.1-41.5-104.2,17.6-118.5c62.6-15.1,86.5,51.5,93.6,67.9c-4-16.7-14.3-53.4-15.6-58.7c-4.2-1.5-49.2-28.5-92.3-28.9
		c-23.6-0.2-81.5,5.9-81.5,78.7c0,49,35.7,81.4,67.6,100.7c28.1,15,146.1,61.8,164.8,131.7C680.7,442.7,590.4,390,519.9,371.9
		c-52.1,8.6-88.7,43.5-108.8,62.6c143.8-82,233.9,17.4,269.8,52.6c-29.8-27.6-93.1-95.5-194.8-78.2c-38.9,13.5-67,40.2-83.7,56.1
		c125.5-72.2,236.9-5.5,285,39.5c-38.5-34.1-120.5-83.5-210.4-65c-38.7,13.6-66.6,40.1-83.2,55.9c137.9-80.3,276.7,5.6,300.2,25
		c-17.8-12.2-111.8-74.2-226.7-50c-38.1,13.7-65.7,39.9-82.2,55.6c98.6-58.3,252.2-18.9,296.1-0.6
		C693.1,530.3,702.2,525.6,702.9,507.7 M771,647.6l0.1-39.4c0-13.8-6.2-22.9-19.7-22.9c-12.4,0-17.9,6.5-23.4,11.9h-0.3v-12.8
		l-20.6,4.4c0,0,7.1,3,7.4,6l-0.1,53.3c0,3.2-7.5,5.7-7.5,5.7h28.6c0,0-7.9-3.2-7.9-6.4l0.1-45.4c1.6-3.3,7.5-10.1,18.1-10.1
		c6.2,0,12,5.5,12,15.5l-0.1,40.8c0,3.2-7.9,5.7-7.9,5.7h28.6C778.4,653.9,771,650.8,771,647.6"/>
</g>
</svg>
