<?xml version="1.0" encoding="utf-8"?>
<!-- Generator: Adobe Illustrator 16.0.0, SVG Export Plug-In . SVG Version: 6.00 Build 0)  -->
<!DOCTYPE svg PUBLIC "-//W3C//DTD SVG 1.1//EN" "http://www.w3.org/Graphics/SVG/1.1/DTD/svg11.dtd">
<svg version="1.1" id="Layer_1" xmlns="http://www.w3.org/2000/svg" xmlns:xlink="http://www.w3.org/1999/xlink" x="0px" y="0px"
	 width="841.89px" height="595.276px" viewBox="0 0 841.89 595.276" enable-background="new 0 0 841.89 595.276"
	 xml:space="preserve">
<path d="M56.558,356.061c0,1.265,17.691,1.054,39.521,1.054c21.829,0,39.516,0.211,39.516-1.054c0-1.266-17.688-3.685-39.516-3.685
	C74.249,352.376,56.558,354.795,56.558,356.061 M150.369,345.632c0.159-4.379-3.186-23.24-18.664-36.273
	c-11.913-10.081-21.138-11.495-35.158-24.95c-14.021-13.409-13.896-34.865,5.906-39.646c20.957-5.054,28.982,17.249,31.343,22.727
	c-1.326-5.581-4.782-17.899-5.222-19.686c-1.407-0.511-16.488-9.515-30.917-9.647c-7.891-0.079-27.312,1.977-27.312,26.351
	c0,16.39,11.951,27.259,22.641,33.701c9.396,5.081,48.925,20.738,55.173,44.123c-5.229-18.484-35.455-36.126-59.038-42.17
	c-17.477,2.876-29.708,14.554-36.454,20.89c48.164-27.449,78.314,5.876,90.34,17.629c-9.972-9.279-31.177-31.962-65.214-26.21
	c-13.039,4.586-22.425,13.486-28.023,18.755c42.025-24.181,79.327-1.824,95.43,13.237c-12.908-11.421-40.356-27.896-70.476-21.689
	c-12.957,4.503-22.306,13.37-27.889,18.72c46.201-26.934,92.679,1.862,100.551,8.358c-5.974-4.115-37.454-24.884-75.925-16.703
	c-12.771,4.526-22.003,13.322-27.523,18.548c32.998-19.505,84.44-6.305,99.14-0.219
	C147.082,353.203,150.146,351.616,150.369,345.632 M174.518,364.331V230.995c-0.002-0.659-0.544-1.19-1.204-1.191
	c-0.653,0.013-1.197,0.533-1.199,1.19V364.33c0,0.611,0.54,1.143,1.199,1.143c0.047,0,0.075-0.001,0.112-0.003
	C174.038,365.435,174.516,364.917,174.518,364.331 M262.301,281.753l-8.998-21.405c-4.046-2.485-10.503-6.862-20.89-6.862
	c-16.619,0-30.263,9.235-30.263,23.87c0,13.102,19.151,22.159,29.986,27.241c10.354,4.748,21.701,9.857,21.701,18.728
	c0,8.587-6.402,14.033-21.95,14.033c-15.067,0-26.375-17.456-30.838-24.623l-0.04,30.3l8.082-8.042
	c2.519,1.893,12.75,6.812,24.293,6.812c13.194,0,35.157-5.677,35.157-22.535c0-17.669-19.546-23.306-29.409-27.587
	c-9.901-4.298-22.703-8.112-22.703-19.616c0-4.655,1.503-14.163,13.949-14.163c17.893,0,32.256,24.705,32.256,24.705
	S262.509,282.303,262.301,281.753 M391.43,252.289l-29.44,5.615c0,0,10.525,1.695,10.525,6.113c0,1.131-0.163,3.886-1.148,6.626
	c-5.126,15.142-10.044,28.247-17.427,47.339h-0.674c-7.007-18.225-15.594-40.708-19.098-50.089c-0.916-2.21-1.06-5.874-1.06-6.087
	c0-3.125,7.171-9.518,7.171-9.518l-33.142,5.615c0,0,7.16,2.61,9.536,7.948c1.502,3.172,2.729,7.754,3.106,8.838
	c-5.338,14.764-11.052,28.615-16.765,43.287h-0.541c-7.76-19.518-16.009-42.532-19.707-51.913c-0.917-2.21-1.293-3.714-1.293-3.881
	c0-2.963,7.384-9.895,7.384-9.895l-28.177,5.615c0,0,20.109,49.814,33.205,82.802h5.379c2.585-8.181,4.666-13.466,7.252-19.72
	c5.338-13.473,10.511-28.193,15.849-40.207c7.17,18.104,14.643,37.614,22.731,59.926h5.054c2.586-8.181,4.45-13.255,7.037-19.72
	c8.299-21.021,12.035-31.904,20.123-52.172C379.732,262.561,391.43,252.289,391.43,252.289 M431.297,291.828l-0.752,32.286
	c-4.421,5.502-8.567,10.906-18.162,10.906c-7.922,0-14.418-5.733-14.418-15.869C397.965,302.763,412.863,297.544,431.297,291.828
	 M430.622,340.711h23.542c0,0-6.136-2.889-6.398-7.43c0-6.044,0.248-36.28,0.248-52.501c0-24.479-13.481-27.3-31.705-27.3
	c-13.967,0-29.641,8.535-29.641,19.586c0,4.797,2.211,9.548,8.301,9.548c6.629,0,10.674-4.046,10.674-7.924
	c0-4.046-1.623-8.09-1.623-10.841c1.623-2.046,4.194-5.944,11.2-5.944c15.307,0,15.864,14.949,15.864,18.289v10.299
	c-7.759,4.421-20.434,7.546-30.942,11.638c-9.218,3.458-20.063,8.629-20.063,23.725c0,11.853,10.718,19.938,23.44,19.938
	c11.051,0,20.559-5.381,27.238-13.048L430.622,340.711z M539.424,332.729l0.193-50.115c0-17.472-7.972-29.112-25.111-29.112
	c-15.847,0-22.853,8.301-29.861,15.144h-0.326v-16.34l-26.246,5.599c0,0,9.104,3.792,9.433,7.673l-0.099,67.902
	c0,4.094-9.562,7.232-9.562,7.232h36.381c0,0-10.101-4.104-10.101-8.195l0.193-57.826c2.043-4.21,9.591-12.887,23.062-12.887
	c7.877,0,15.286,7.008,15.286,19.727l-0.172,51.95c0,4.094-10.102,7.232-10.102,7.232h36.38
	C548.773,340.711,539.424,336.818,539.424,332.729 M589.107,341.793c13.424,0,23.264-6.497,29.021-11.486v-12.363
	c-3.041,4.867-13.071,19.396-27.276,19.396c-15.292,0-24.496-17.847-24.496-39.252c0-25.361,12.199-40.184,22.83-40.184
	c14.657,0.146,27.084,21.315,28.942,24.698v-30.305l-8.073,8.042c-1.873-2.057-8.852-6.709-20.855-6.854
	c-31.012-0.396-41.03,26.09-41.03,44.643C548.17,321.595,561.007,341.793,589.107,341.793 M689.236,296.836
	c0,22.103-7.022,40.504-23.686,40.504c-17.581,0-24.068-18.942-24.068-40.878c0-17.518,4.975-38.558,24.16-38.558
	C683.536,257.904,689.236,277.484,689.236,296.836 M707.794,296.625c0-24.477-16.146-43.145-41.915-43.145
	c-25.801,0-43.04,18.292-43.04,44.439c0,27.062,19.572,43.875,41.707,43.875C692.364,341.794,707.794,321.195,707.794,296.625
	 M788.604,332.729l0.159-50.115c0-17.472-7.92-29.112-25.052-29.112c-15.844,0-22.85,8.301-29.858,15.144h-0.389v-16.34
	l-26.238,5.599c0,0,9.098,3.792,9.488,7.673l-0.16,67.902c0,4.094-9.56,7.232-9.56,7.232h36.408c0,0-10.069-4.104-10.069-8.195
	l0.131-57.826c2.044-4.21,9.592-12.887,23.064-12.887c7.879,0,15.282,7.008,15.282,19.727l-0.169,51.95
	c0,4.094-10.096,7.232-10.096,7.232h36.407C797.953,340.711,788.604,336.818,788.604,332.729"/>
</svg>
