<?xml version="1.0" encoding="utf-8"?>
<!-- Generator: Adobe Illustrator 18.1.1, SVG Export Plug-In . SVG Version: 6.00 Build 0)  -->
<svg version="1.1" id="Layer_1" xmlns="http://www.w3.org/2000/svg" xmlns:xlink="http://www.w3.org/1999/xlink" x="0px" y="0px"
	 viewBox="0 0 90 90" enable-background="new 0 0 90 90" xml:space="preserve">
<g>
	<path fill="#292C78" d="M72.9,90H17.1C7.6,90,0,82.4,0,72.9V17.1C0,7.6,7.6,0,17.1,0h55.9C82.4,0,90,7.6,90,17.1v55.9
		C90,82.4,82.4,90,72.9,90z"/>
	<path id="Twitter_2_" fill="#FFFFFF" d="M65,64.7H46.2c-2.6,0-4.8-0.9-6.7-2.8c-1.8-1.8-2.7-4.1-2.7-6.7v-6.7h26.8
		c2.4,0,4.5-0.9,6.2-2.6c1.7-1.7,2.6-3.8,2.6-6.2c0-2.4-0.9-4.5-2.6-6.2c-1.7-1.7-3.8-2.6-6.3-2.6H36.8V17c0-2.6-0.9-4.9-2.8-6.7
		c-1.8-1.9-4.1-2.8-6.7-2.8c-2.7,0-4.9,0.9-6.8,2.8c-1.9,1.8-2.8,4.1-2.8,6.8v38.2c0,7.9,2.8,14.6,8.3,20.2
		c5.6,5.6,12.3,8.4,20.1,8.4H65c2.6,0,4.9-0.9,6.7-2.8c1.9-1.9,2.8-4.1,2.8-6.7c0-2.6-0.9-4.9-2.8-6.7C69.9,65.7,67.7,64.7,65,64.7z
		"/>
</g>
</svg>
